# xmcd
#
# Track frame offsets: 
#        150
#        20407
#        31735
#        43547
#        62677
#        69377
#        76740
#        91802
#        106555
#        119012
#        127782
#        160882
#        177652
#
# Disc length: 3024 seconds
#
# Revision: 0
# Processed by: cddbd v1.5.1PL2 Copyright (c) Steve Scherf et al.
# Submitted via: ExactAudioCopy v0.95b4
#
DISCID=970bce0d
DTITLE=Willie Nelson - Rainbow Connection
DYEAR=2001
DGENRE=Country
TTITLE0=Rainbow Connection
TTITLE1=I'm Looking Over A Four Leaf Clover
TTITLE2=Ol' Blue
TTITLE3=Wise Old Me
TTITLE4=Won't You Ride In My Little Red Wagon
TTITLE5=Playmate
TTITLE6=I'm My Own Grandpa
TTITLE7=Rock Me To Sleep
TTITLE8=Playin Dominoes And Shootin' Dice
TTITLE9=Wouldn't Have It Any Other Way
TTITLE10=Outskirts of Town
TTITLE11=Just Dropped In (To See What Condition My Condition Was In)
TTITLE12=The 33rd of August
EXTD=
EXTT0=
EXTT1=
EXTT2=
EXTT3=
EXTT4=
EXTT5=
EXTT6=
EXTT7=
EXTT8=
EXTT9=
EXTT10=
EXTT11=
EXTT12=
PLAYORDER=
